<?xml version="1.0" encoding="UTF-8"?><svg xmlns="http://www.w3.org/2000/svg" xmlns:xlink="http://www.w3.org/1999/xlink" fill-opacity="1" color-rendering="auto" color-interpolation="auto" text-rendering="auto" stroke="black" stroke-linecap="square" width="996" stroke-miterlimit="10" shape-rendering="auto" stroke-opacity="1" fill="black" stroke-dasharray="none" font-weight="normal" stroke-width="1" height="728" font-family="'Dialog'" font-style="normal" stroke-linejoin="miter" font-size="12" stroke-dashoffset="0" image-rendering="auto">
  <!--Generated by ySVG 2.5-->
  <defs id="genericDefs"/>
  <g>
    <defs id="defs1">
      <clipPath clipPathUnits="userSpaceOnUse" id="clipPath1">
        <path d="M0 0 L996 0 L996 728 L0 728 L0 0 Z"/>
      </clipPath>
      <clipPath clipPathUnits="userSpaceOnUse" id="clipPath2">
        <path d="M-279 -404 L717 -404 L717 324 L-279 324 L-279 -404 Z"/>
      </clipPath>
    </defs>
    <g fill="white" text-rendering="geometricPrecision" shape-rendering="geometricPrecision" transform="translate(279,404)" stroke="white">
      <rect x="-279" width="996" height="728" y="-404" clip-path="url(#clipPath2)" stroke="none"/>
    </g>
    <g fill="rgb(204,255,204)" text-rendering="geometricPrecision" shape-rendering="geometricPrecision" transform="matrix(1,0,0,1,279,404)" stroke="rgb(204,255,204)">
      <ellipse rx="19.5" ry="14.5" clip-path="url(#clipPath2)" cx="49.915" cy="216.0977" stroke="none"/>
    </g>
    <g text-rendering="geometricPrecision" stroke-miterlimit="1.45" shape-rendering="geometricPrecision" font-family="sans-serif" transform="matrix(1,0,0,1,279,404)" stroke-linecap="butt">
      <text x="46.5781" xml:space="preserve" y="220.8115" clip-path="url(#clipPath2)" stroke="none">0</text>
      <ellipse rx="19.5" fill="none" ry="14.5" clip-path="url(#clipPath2)" cx="49.915" cy="216.0977"/>
    </g>
    <g fill="rgb(204,255,204)" text-rendering="geometricPrecision" shape-rendering="geometricPrecision" transform="matrix(1,0,0,1,279,404)" stroke="rgb(204,255,204)">
      <ellipse rx="19.5" ry="14.5" clip-path="url(#clipPath2)" cx="128.915" cy="216.0977" stroke="none"/>
    </g>
    <g text-rendering="geometricPrecision" stroke-miterlimit="1.45" shape-rendering="geometricPrecision" font-family="sans-serif" transform="matrix(1,0,0,1,279,404)" stroke-linecap="butt">
      <text x="125.5781" xml:space="preserve" y="220.8115" clip-path="url(#clipPath2)" stroke="none">1</text>
      <ellipse rx="19.5" fill="none" ry="14.5" clip-path="url(#clipPath2)" cx="128.915" cy="216.0977"/>
    </g>
    <g fill="rgb(204,255,204)" text-rendering="geometricPrecision" shape-rendering="geometricPrecision" transform="matrix(1,0,0,1,279,404)" stroke="rgb(204,255,204)">
      <ellipse rx="19.5" ry="14.5" clip-path="url(#clipPath2)" cx="207.915" cy="216.0977" stroke="none"/>
    </g>
    <g text-rendering="geometricPrecision" stroke-miterlimit="1.45" shape-rendering="geometricPrecision" font-family="sans-serif" transform="matrix(1,0,0,1,279,404)" stroke-linecap="butt">
      <text x="204.5781" xml:space="preserve" y="220.8115" clip-path="url(#clipPath2)" stroke="none">2</text>
      <ellipse rx="19.5" fill="none" ry="14.5" clip-path="url(#clipPath2)" cx="207.915" cy="216.0977"/>
    </g>
    <g fill="rgb(204,255,204)" text-rendering="geometricPrecision" shape-rendering="geometricPrecision" transform="matrix(1,0,0,1,279,404)" stroke="rgb(204,255,204)">
      <ellipse rx="19.5" ry="14.5" clip-path="url(#clipPath2)" cx="286.915" cy="216.0977" stroke="none"/>
    </g>
    <g text-rendering="geometricPrecision" stroke-miterlimit="1.45" shape-rendering="geometricPrecision" font-family="sans-serif" transform="matrix(1,0,0,1,279,404)" stroke-linecap="butt">
      <text x="283.5781" xml:space="preserve" y="220.8115" clip-path="url(#clipPath2)" stroke="none">3</text>
      <ellipse rx="19.5" fill="none" ry="14.5" clip-path="url(#clipPath2)" cx="286.915" cy="216.0977"/>
    </g>
    <g fill="rgb(204,255,204)" text-rendering="geometricPrecision" shape-rendering="geometricPrecision" transform="matrix(1,0,0,1,279,404)" stroke="rgb(204,255,204)">
      <ellipse rx="19.5" ry="14.5" clip-path="url(#clipPath2)" cx="365.915" cy="216.0977" stroke="none"/>
    </g>
    <g text-rendering="geometricPrecision" stroke-miterlimit="1.45" shape-rendering="geometricPrecision" font-family="sans-serif" transform="matrix(1,0,0,1,279,404)" stroke-linecap="butt">
      <text x="362.5781" xml:space="preserve" y="220.8115" clip-path="url(#clipPath2)" stroke="none">4</text>
      <ellipse rx="19.5" fill="none" ry="14.5" clip-path="url(#clipPath2)" cx="365.915" cy="216.0977"/>
    </g>
    <g fill="rgb(204,255,204)" text-rendering="geometricPrecision" shape-rendering="geometricPrecision" transform="matrix(1,0,0,1,279,404)" stroke="rgb(204,255,204)">
      <ellipse rx="19.5" ry="14.5" clip-path="url(#clipPath2)" cx="444.915" cy="216.0977" stroke="none"/>
    </g>
    <g text-rendering="geometricPrecision" stroke-miterlimit="1.45" shape-rendering="geometricPrecision" font-family="sans-serif" transform="matrix(1,0,0,1,279,404)" stroke-linecap="butt">
      <text x="441.5781" xml:space="preserve" y="220.8115" clip-path="url(#clipPath2)" stroke="none">5</text>
      <ellipse rx="19.5" fill="none" ry="14.5" clip-path="url(#clipPath2)" cx="444.915" cy="216.0977"/>
    </g>
    <g fill="rgb(204,255,204)" text-rendering="geometricPrecision" shape-rendering="geometricPrecision" transform="matrix(1,0,0,1,279,404)" stroke="rgb(204,255,204)">
      <ellipse rx="19.5" ry="14.5" clip-path="url(#clipPath2)" cx="523.915" cy="216.0977" stroke="none"/>
    </g>
    <g text-rendering="geometricPrecision" stroke-miterlimit="1.45" shape-rendering="geometricPrecision" font-family="sans-serif" transform="matrix(1,0,0,1,279,404)" stroke-linecap="butt">
      <text x="520.5781" xml:space="preserve" y="220.8115" clip-path="url(#clipPath2)" stroke="none">6</text>
      <ellipse rx="19.5" fill="none" ry="14.5" clip-path="url(#clipPath2)" cx="523.915" cy="216.0977"/>
    </g>
    <g fill="rgb(204,255,204)" text-rendering="geometricPrecision" shape-rendering="geometricPrecision" transform="matrix(1,0,0,1,279,404)" stroke="rgb(204,255,204)">
      <ellipse rx="19.5" ry="14.5" clip-path="url(#clipPath2)" cx="602.915" cy="216.0977" stroke="none"/>
    </g>
    <g text-rendering="geometricPrecision" stroke-miterlimit="1.45" shape-rendering="geometricPrecision" font-family="sans-serif" transform="matrix(1,0,0,1,279,404)" stroke-linecap="butt">
      <text x="599.5781" xml:space="preserve" y="220.8115" clip-path="url(#clipPath2)" stroke="none">7</text>
      <ellipse rx="19.5" fill="none" ry="14.5" clip-path="url(#clipPath2)" cx="602.915" cy="216.0977"/>
    </g>
    <g fill="rgb(204,255,204)" text-rendering="geometricPrecision" shape-rendering="geometricPrecision" transform="matrix(1,0,0,1,279,404)" stroke="rgb(204,255,204)">
      <ellipse rx="19.5" ry="14.5" clip-path="url(#clipPath2)" cx="681.915" cy="216.0977" stroke="none"/>
    </g>
    <g text-rendering="geometricPrecision" stroke-miterlimit="1.45" shape-rendering="geometricPrecision" font-family="sans-serif" transform="matrix(1,0,0,1,279,404)" stroke-linecap="butt">
      <text x="678.5781" xml:space="preserve" y="220.8115" clip-path="url(#clipPath2)" stroke="none">8</text>
      <ellipse rx="19.5" fill="none" ry="14.5" clip-path="url(#clipPath2)" cx="681.915" cy="216.0977"/>
    </g>
    <g fill="rgb(204,255,204)" text-rendering="geometricPrecision" shape-rendering="geometricPrecision" transform="matrix(1,0,0,1,279,404)" stroke="rgb(204,255,204)">
      <ellipse rx="19.5" ry="14.5" clip-path="url(#clipPath2)" cx="591.5" cy="104.5378" stroke="none"/>
    </g>
    <g text-rendering="geometricPrecision" stroke-miterlimit="1.45" shape-rendering="geometricPrecision" font-family="sans-serif" transform="matrix(1,0,0,1,279,404)" stroke-linecap="butt">
      <text x="588.1631" xml:space="preserve" y="109.2516" clip-path="url(#clipPath2)" stroke="none">7</text>
      <ellipse rx="19.5" fill="none" ry="14.5" clip-path="url(#clipPath2)" cx="591.5" cy="104.5378"/>
    </g>
    <g fill="rgb(204,255,204)" text-rendering="geometricPrecision" shape-rendering="geometricPrecision" transform="matrix(1,0,0,1,279,404)" stroke="rgb(204,255,204)">
      <ellipse rx="19.5" ry="14.5" clip-path="url(#clipPath2)" cx="670.5" cy="104.5378" stroke="none"/>
    </g>
    <g text-rendering="geometricPrecision" stroke-miterlimit="1.45" shape-rendering="geometricPrecision" font-family="sans-serif" transform="matrix(1,0,0,1,279,404)" stroke-linecap="butt">
      <text x="667.1631" xml:space="preserve" y="109.2516" clip-path="url(#clipPath2)" stroke="none">8</text>
      <ellipse rx="19.5" fill="none" ry="14.5" clip-path="url(#clipPath2)" cx="670.5" cy="104.5378"/>
    </g>
    <g fill="rgb(204,255,204)" text-rendering="geometricPrecision" shape-rendering="geometricPrecision" transform="matrix(1,0,0,1,279,404)" stroke="rgb(204,255,204)">
      <ellipse rx="19.5" ry="14.5" clip-path="url(#clipPath2)" cx="428.5" cy="-7.0221" stroke="none"/>
    </g>
    <g text-rendering="geometricPrecision" stroke-miterlimit="1.45" shape-rendering="geometricPrecision" font-family="sans-serif" transform="matrix(1,0,0,1,279,404)" stroke-linecap="butt">
      <text x="425.1631" xml:space="preserve" y="-2.3082" clip-path="url(#clipPath2)" stroke="none">5</text>
      <ellipse rx="19.5" fill="none" ry="14.5" clip-path="url(#clipPath2)" cx="428.5" cy="-7.0221"/>
    </g>
    <g fill="rgb(204,255,204)" text-rendering="geometricPrecision" shape-rendering="geometricPrecision" transform="matrix(1,0,0,1,279,404)" stroke="rgb(204,255,204)">
      <ellipse rx="19.5" ry="14.5" clip-path="url(#clipPath2)" cx="507.5" cy="-7.0221" stroke="none"/>
    </g>
    <g text-rendering="geometricPrecision" stroke-miterlimit="1.45" shape-rendering="geometricPrecision" font-family="sans-serif" transform="matrix(1,0,0,1,279,404)" stroke-linecap="butt">
      <text x="504.1631" xml:space="preserve" y="-2.3082" clip-path="url(#clipPath2)" stroke="none">6</text>
      <ellipse rx="19.5" fill="none" ry="14.5" clip-path="url(#clipPath2)" cx="507.5" cy="-7.0221"/>
    </g>
    <g fill="rgb(204,255,204)" text-rendering="geometricPrecision" shape-rendering="geometricPrecision" transform="matrix(1,0,0,1,279,404)" stroke="rgb(204,255,204)">
      <ellipse rx="19.5" ry="14.5" clip-path="url(#clipPath2)" cx="586.5" cy="-7.0221" stroke="none"/>
    </g>
    <g text-rendering="geometricPrecision" stroke-miterlimit="1.45" shape-rendering="geometricPrecision" font-family="sans-serif" transform="matrix(1,0,0,1,279,404)" stroke-linecap="butt">
      <text x="583.1631" xml:space="preserve" y="-2.3082" clip-path="url(#clipPath2)" stroke="none">7</text>
      <ellipse rx="19.5" fill="none" ry="14.5" clip-path="url(#clipPath2)" cx="586.5" cy="-7.0221"/>
    </g>
    <g fill="rgb(255,102,51)" text-rendering="geometricPrecision" shape-rendering="geometricPrecision" transform="matrix(1,0,0,1,279,404)" stroke="rgb(255,102,51)">
      <ellipse rx="19.5" ry="14.5" clip-path="url(#clipPath2)" cx="665.5" cy="-7.0221" stroke="none"/>
    </g>
    <g text-rendering="geometricPrecision" stroke-miterlimit="1.45" shape-rendering="geometricPrecision" font-family="sans-serif" transform="matrix(1,0,0,1,279,404)" stroke-linecap="butt">
      <text x="662.1631" xml:space="preserve" y="-2.3082" clip-path="url(#clipPath2)" stroke="none">8</text>
      <ellipse rx="19.5" fill="none" ry="14.5" clip-path="url(#clipPath2)" cx="665.5" cy="-7.0221"/>
    </g>
    <g fill="rgb(204,255,204)" text-rendering="geometricPrecision" shape-rendering="geometricPrecision" transform="matrix(1,0,0,1,279,404)" stroke="rgb(204,255,204)">
      <ellipse rx="19.5" ry="14.5" clip-path="url(#clipPath2)" cx="270.5" cy="-109.5383" stroke="none"/>
    </g>
    <g text-rendering="geometricPrecision" stroke-miterlimit="1.45" shape-rendering="geometricPrecision" font-family="sans-serif" transform="matrix(1,0,0,1,279,404)" stroke-linecap="butt">
      <text x="267.1631" xml:space="preserve" y="-104.8245" clip-path="url(#clipPath2)" stroke="none">3</text>
      <ellipse rx="19.5" fill="none" ry="14.5" clip-path="url(#clipPath2)" cx="270.5" cy="-109.5383"/>
    </g>
    <g fill="rgb(204,255,204)" text-rendering="geometricPrecision" shape-rendering="geometricPrecision" transform="matrix(1,0,0,1,279,404)" stroke="rgb(204,255,204)">
      <ellipse rx="19.5" ry="14.5" clip-path="url(#clipPath2)" cx="349.5" cy="-109.5383" stroke="none"/>
    </g>
    <g text-rendering="geometricPrecision" stroke-miterlimit="1.45" shape-rendering="geometricPrecision" font-family="sans-serif" transform="matrix(1,0,0,1,279,404)" stroke-linecap="butt">
      <text x="346.1631" xml:space="preserve" y="-104.8245" clip-path="url(#clipPath2)" stroke="none">4</text>
      <ellipse rx="19.5" fill="none" ry="14.5" clip-path="url(#clipPath2)" cx="349.5" cy="-109.5383"/>
    </g>
    <g fill="rgb(204,255,204)" text-rendering="geometricPrecision" shape-rendering="geometricPrecision" transform="matrix(1,0,0,1,279,404)" stroke="rgb(204,255,204)">
      <ellipse rx="19.5" ry="14.5" clip-path="url(#clipPath2)" cx="428.5" cy="-109.5383" stroke="none"/>
    </g>
    <g text-rendering="geometricPrecision" stroke-miterlimit="1.45" shape-rendering="geometricPrecision" font-family="sans-serif" transform="matrix(1,0,0,1,279,404)" stroke-linecap="butt">
      <text x="425.1631" xml:space="preserve" y="-104.8245" clip-path="url(#clipPath2)" stroke="none">5</text>
      <ellipse rx="19.5" fill="none" ry="14.5" clip-path="url(#clipPath2)" cx="428.5" cy="-109.5383"/>
    </g>
    <g fill="rgb(255,102,51)" text-rendering="geometricPrecision" shape-rendering="geometricPrecision" transform="matrix(1,0,0,1,279,404)" stroke="rgb(255,102,51)">
      <ellipse rx="19.5" ry="14.5" clip-path="url(#clipPath2)" cx="507.5" cy="-109.5383" stroke="none"/>
    </g>
    <g text-rendering="geometricPrecision" stroke-miterlimit="1.45" shape-rendering="geometricPrecision" font-family="sans-serif" transform="matrix(1,0,0,1,279,404)" stroke-linecap="butt">
      <text x="504.1631" xml:space="preserve" y="-104.8245" clip-path="url(#clipPath2)" stroke="none">6</text>
      <ellipse rx="19.5" fill="none" ry="14.5" clip-path="url(#clipPath2)" cx="507.5" cy="-109.5383"/>
    </g>
    <g fill="rgb(255,102,51)" text-rendering="geometricPrecision" shape-rendering="geometricPrecision" transform="matrix(1,0,0,1,279,404)" stroke="rgb(255,102,51)">
      <ellipse rx="19.5" ry="14.5" clip-path="url(#clipPath2)" cx="586.5" cy="-109.5383" stroke="none"/>
    </g>
    <g text-rendering="geometricPrecision" stroke-miterlimit="1.45" shape-rendering="geometricPrecision" font-family="sans-serif" transform="matrix(1,0,0,1,279,404)" stroke-linecap="butt">
      <text x="583.1631" xml:space="preserve" y="-104.8245" clip-path="url(#clipPath2)" stroke="none">7</text>
      <ellipse rx="19.5" fill="none" ry="14.5" clip-path="url(#clipPath2)" cx="586.5" cy="-109.5383"/>
    </g>
    <g fill="rgb(204,255,204)" text-rendering="geometricPrecision" shape-rendering="geometricPrecision" transform="matrix(1,0,0,1,279,404)" stroke="rgb(204,255,204)">
      <ellipse rx="19.5" ry="14.5" clip-path="url(#clipPath2)" cx="112.5" cy="-222.3638" stroke="none"/>
    </g>
    <g text-rendering="geometricPrecision" stroke-miterlimit="1.45" shape-rendering="geometricPrecision" font-family="sans-serif" transform="matrix(1,0,0,1,279,404)" stroke-linecap="butt">
      <text x="109.1631" xml:space="preserve" y="-217.6499" clip-path="url(#clipPath2)" stroke="none">1</text>
      <ellipse rx="19.5" fill="none" ry="14.5" clip-path="url(#clipPath2)" cx="112.5" cy="-222.3638"/>
    </g>
    <g fill="rgb(204,255,204)" text-rendering="geometricPrecision" shape-rendering="geometricPrecision" transform="matrix(1,0,0,1,279,404)" stroke="rgb(204,255,204)">
      <ellipse rx="19.5" ry="14.5" clip-path="url(#clipPath2)" cx="191.5" cy="-222.3638" stroke="none"/>
    </g>
    <g text-rendering="geometricPrecision" stroke-miterlimit="1.45" shape-rendering="geometricPrecision" font-family="sans-serif" transform="matrix(1,0,0,1,279,404)" stroke-linecap="butt">
      <text x="188.1631" xml:space="preserve" y="-217.6499" clip-path="url(#clipPath2)" stroke="none">2</text>
      <ellipse rx="19.5" fill="none" ry="14.5" clip-path="url(#clipPath2)" cx="191.5" cy="-222.3638"/>
    </g>
    <g fill="rgb(204,255,204)" text-rendering="geometricPrecision" shape-rendering="geometricPrecision" transform="matrix(1,0,0,1,279,404)" stroke="rgb(204,255,204)">
      <ellipse rx="19.5" ry="14.5" clip-path="url(#clipPath2)" cx="270.5" cy="-222.3638" stroke="none"/>
    </g>
    <g text-rendering="geometricPrecision" stroke-miterlimit="1.45" shape-rendering="geometricPrecision" font-family="sans-serif" transform="matrix(1,0,0,1,279,404)" stroke-linecap="butt">
      <text x="267.1631" xml:space="preserve" y="-217.6499" clip-path="url(#clipPath2)" stroke="none">3</text>
      <ellipse rx="19.5" fill="none" ry="14.5" clip-path="url(#clipPath2)" cx="270.5" cy="-222.3638"/>
    </g>
    <g fill="rgb(255,102,51)" text-rendering="geometricPrecision" shape-rendering="geometricPrecision" transform="matrix(1,0,0,1,279,404)" stroke="rgb(255,102,51)">
      <ellipse rx="19.5" ry="14.5" clip-path="url(#clipPath2)" cx="349.5" cy="-222.3638" stroke="none"/>
    </g>
    <g text-rendering="geometricPrecision" stroke-miterlimit="1.45" shape-rendering="geometricPrecision" font-family="sans-serif" transform="matrix(1,0,0,1,279,404)" stroke-linecap="butt">
      <text x="346.1631" xml:space="preserve" y="-217.6499" clip-path="url(#clipPath2)" stroke="none">4</text>
      <ellipse rx="19.5" fill="none" ry="14.5" clip-path="url(#clipPath2)" cx="349.5" cy="-222.3638"/>
    </g>
    <g fill="rgb(204,255,204)" text-rendering="geometricPrecision" shape-rendering="geometricPrecision" transform="matrix(1,0,0,1,279,404)" stroke="rgb(204,255,204)">
      <ellipse rx="19.5" ry="14.5" clip-path="url(#clipPath2)" cx="33.5" cy="-361.2188" stroke="none"/>
    </g>
    <g text-rendering="geometricPrecision" stroke-miterlimit="1.45" shape-rendering="geometricPrecision" font-family="sans-serif" transform="matrix(1,0,0,1,279,404)" stroke-linecap="butt">
      <text x="30.1631" xml:space="preserve" y="-356.5049" clip-path="url(#clipPath2)" stroke="none">0</text>
      <ellipse rx="19.5" fill="none" ry="14.5" clip-path="url(#clipPath2)" cx="33.5" cy="-361.2188"/>
    </g>
    <g fill="rgb(204,255,204)" text-rendering="geometricPrecision" shape-rendering="geometricPrecision" transform="matrix(1,0,0,1,279,404)" stroke="rgb(204,255,204)">
      <ellipse rx="19.5" ry="14.5" clip-path="url(#clipPath2)" cx="112.5" cy="-361.2188" stroke="none"/>
    </g>
    <g text-rendering="geometricPrecision" stroke-miterlimit="1.45" shape-rendering="geometricPrecision" font-family="sans-serif" transform="matrix(1,0,0,1,279,404)" stroke-linecap="butt">
      <text x="109.1631" xml:space="preserve" y="-356.5049" clip-path="url(#clipPath2)" stroke="none">1</text>
      <ellipse rx="19.5" fill="none" ry="14.5" clip-path="url(#clipPath2)" cx="112.5" cy="-361.2188"/>
    </g>
    <g fill="rgb(255,102,51)" text-rendering="geometricPrecision" shape-rendering="geometricPrecision" transform="matrix(1,0,0,1,279,404)" stroke="rgb(255,102,51)">
      <ellipse rx="19.5" ry="14.5" clip-path="url(#clipPath2)" cx="191.5" cy="-361.2188" stroke="none"/>
    </g>
    <g text-rendering="geometricPrecision" stroke-miterlimit="1.45" shape-rendering="geometricPrecision" font-family="sans-serif" transform="matrix(1,0,0,1,279,404)" stroke-linecap="butt">
      <text x="188.1631" xml:space="preserve" y="-356.5049" clip-path="url(#clipPath2)" stroke="none">2</text>
      <ellipse rx="19.5" fill="none" ry="14.5" clip-path="url(#clipPath2)" cx="191.5" cy="-361.2188"/>
      <text x="-244.5811" xml:space="preserve" y="-374.7578" clip-path="url(#clipPath2)" stroke="none">emma:stream-status="begin"</text>
      <text x="-244.5811" xml:space="preserve" y="-360.0566" clip-path="url(#clipPath2)" stroke="none">emma:stream-seq-num="0"</text>
      <text x="-244.5811" xml:space="preserve" y="-345.3555" clip-path="url(#clipPath2)" stroke="none">emma:stream-full-result="true"</text>
      <text x="-244.5811" xml:space="preserve" y="-330.6543" clip-path="url(#clipPath2)" stroke="none">emma:stream-token-span="0-2"</text>
      <text x="-244.5811" xml:space="preserve" y="-315.9531" clip-path="url(#clipPath2)" stroke="none">emma:stream-token-immortals="true false"</text>
      <text x="-244.5811" xml:space="preserve" y="-301.252" clip-path="url(#clipPath2)" stroke="none">emma:stream-immortal-vertex="1"</text>
      <text x="-244.5811" xml:space="preserve" y="-254.4028" clip-path="url(#clipPath2)" stroke="none">emma:streamStatus="in-progress"</text>
      <text x="-244.5811" xml:space="preserve" y="-239.7017" clip-path="url(#clipPath2)" stroke="none">emma:streamSeqNum="1"</text>
      <text x="-244.5811" xml:space="preserve" y="-225.0005" clip-path="url(#clipPath2)" stroke="none">emma:stream-full-result="false"</text>
      <text x="-244.5811" xml:space="preserve" y="-210.2993" clip-path="url(#clipPath2)" stroke="none">emma:stream-token-span="1-4"</text>
      <text x="-244.5811" xml:space="preserve" y="-195.5981" clip-path="url(#clipPath2)" stroke="none">emma:stream-token-immortals="true true false"</text>
      <text x="-244.5811" xml:space="preserve" y="-180.897" clip-path="url(#clipPath2)" stroke="none">emma:stream-immortal-vertex="3"</text>
      <text x="-244.5811" xml:space="preserve" y="215.6621" clip-path="url(#clipPath2)" stroke="none">emma:streamStatus="end"</text>
      <text x="-244.5811" xml:space="preserve" y="230.3633" clip-path="url(#clipPath2)" stroke="none">emma:stream-full-result="true"</text>
      <text x="-244.5811" xml:space="preserve" y="245.0645" clip-path="url(#clipPath2)" stroke="none">emma:streamSeqNum="5"</text>
      <text x="-244.5811" xml:space="preserve" y="259.7656" clip-path="url(#clipPath2)" stroke="none">emma:stream-full-result="true"</text>
      <text x="-244.5811" xml:space="preserve" y="274.4668" clip-path="url(#clipPath2)" stroke="none">emma:stream-token-span="0-8"</text>
      <text x="-244.5811" xml:space="preserve" y="289.168" clip-path="url(#clipPath2)" stroke="none">emma:stream-token-immortals="true true true true true true true true true"</text>
      <text x="-244.5811" xml:space="preserve" y="303.8691" clip-path="url(#clipPath2)" stroke="none">emma:stream-immortal-vertex="8"</text>
      <text x="-244.5811" xml:space="preserve" y="-141.5774" clip-path="url(#clipPath2)" stroke="none">emma:streamStatus="in-progress"</text>
      <text x="-244.5811" xml:space="preserve" y="-126.8762" clip-path="url(#clipPath2)" stroke="none">emma:streamSeqNum="2"</text>
      <text x="-244.5811" xml:space="preserve" y="-112.175" clip-path="url(#clipPath2)" stroke="none">emma:stream-full-result="false"</text>
      <text x="-244.5811" xml:space="preserve" y="-97.4739" clip-path="url(#clipPath2)" stroke="none">emma:stream-token-span="3-7"</text>
      <text x="-244.5811" xml:space="preserve" y="-82.7727" clip-path="url(#clipPath2)" stroke="none">emma:stream-token-immortals="true true false false"</text>
      <text x="-244.5811" xml:space="preserve" y="-68.0715" clip-path="url(#clipPath2)" stroke="none">emma:stream-immortal-vertex="5"</text>
      <text x="-244.5811" xml:space="preserve" y="-28.752" clip-path="url(#clipPath2)" stroke="none">emma:streamStatus="in-progress"</text>
      <text x="-244.5811" xml:space="preserve" y="-14.0508" clip-path="url(#clipPath2)" stroke="none">emma:streamSeqNum="3"</text>
      <text x="-244.5811" xml:space="preserve" y="0.6504" clip-path="url(#clipPath2)" stroke="none">emma:stream-full-result="false"</text>
      <text x="-244.5811" xml:space="preserve" y="15.3516" clip-path="url(#clipPath2)" stroke="none">emma:stream-token-span="5-8"</text>
      <text x="-244.5811" xml:space="preserve" y="30.0527" clip-path="url(#clipPath2)" stroke="none">emma:stream-token-immortals="true true true false"</text>
      <text x="-244.5811" xml:space="preserve" y="44.7539" clip-path="url(#clipPath2)" stroke="none">emma:stream-immortal-vertex="7"</text>
      <text x="-244.5811" xml:space="preserve" y="93.4551" clip-path="url(#clipPath2)" stroke="none">emma:streamStatus="in-progress"</text>
      <text x="-244.5811" xml:space="preserve" y="108.1562" clip-path="url(#clipPath2)" stroke="none">emma:streamSeqNum="4"</text>
      <text x="-244.5811" xml:space="preserve" y="122.8574" clip-path="url(#clipPath2)" stroke="none">emma:stream-full-result="false"</text>
      <text x="-244.5811" xml:space="preserve" y="137.5586" clip-path="url(#clipPath2)" stroke="none">emma:stream-token-span="7-8"</text>
      <text x="-244.5811" xml:space="preserve" y="152.2598" clip-path="url(#clipPath2)" stroke="none">emma:stream-token-immortals="true"</text>
      <text x="-244.5811" xml:space="preserve" y="166.9609" clip-path="url(#clipPath2)" stroke="none">emma:stream-immortal-vertex="8"</text>
      <path fill="none" d="M69.415 216.0977 L101.415 216.0977" clip-path="url(#clipPath2)"/>
      <path d="M109.415 216.0977 L97.415 211.0977 L100.415 216.0977 L97.415 221.0977 Z" clip-path="url(#clipPath2)" stroke="none"/>
      <text x="83.415" xml:space="preserve" y="243.4609" clip-path="url(#clipPath2)" font-weight="bold" stroke="none">Hi</text>
      <text x="84.4111" xml:space="preserve" y="258.1621" clip-path="url(#clipPath2)" font-weight="bold" stroke="none">.9</text>
      <path fill="none" d="M148.415 216.0977 L180.415 216.0977" clip-path="url(#clipPath2)"/>
      <path d="M188.415 216.0977 L176.415 211.0977 L179.415 216.0977 L176.415 221.0977 Z" clip-path="url(#clipPath2)" stroke="none"/>
      <text x="158.0762" xml:space="preserve" y="243.4609" clip-path="url(#clipPath2)" font-weight="bold" stroke="none">Joe</text>
      <text x="163.4111" xml:space="preserve" y="258.1621" clip-path="url(#clipPath2)" font-weight="bold" stroke="none">.7</text>
      <path fill="none" d="M227.415 216.0977 L259.415 216.0977" clip-path="url(#clipPath2)"/>
      <path d="M267.415 216.0977 L255.415 211.0977 L258.415 216.0977 L255.415 221.0977 Z" clip-path="url(#clipPath2)" stroke="none"/>
      <text x="238.415" xml:space="preserve" y="243.4609" clip-path="url(#clipPath2)" font-weight="bold" stroke="none">the</text>
      <text x="242.4111" xml:space="preserve" y="258.1621" clip-path="url(#clipPath2)" font-weight="bold" stroke="none">.9</text>
      <path fill="none" d="M306.415 216.0977 L338.415 216.0977" clip-path="url(#clipPath2)"/>
      <path d="M346.415 216.0977 L334.415 211.0977 L337.415 216.0977 L334.415 221.0977 Z" clip-path="url(#clipPath2)" stroke="none"/>
      <text x="303.9111" xml:space="preserve" y="243.4609" clip-path="url(#clipPath2)" font-weight="bold" stroke="none">meeting</text>
      <text x="321.9111" xml:space="preserve" y="258.1621" clip-path="url(#clipPath2)" font-weight="bold" stroke="none">.9</text>
      <path fill="none" d="M385.415 216.0977 L417.415 216.0977" clip-path="url(#clipPath2)"/>
      <path d="M425.415 216.0977 L413.415 211.0977 L416.415 216.0977 L413.415 221.0977 Z" clip-path="url(#clipPath2)" stroke="none"/>
      <text x="395.0762" xml:space="preserve" y="243.4609" clip-path="url(#clipPath2)" font-weight="bold" stroke="none">has</text>
      <text x="397.0742" xml:space="preserve" y="258.1621" clip-path="url(#clipPath2)" font-weight="bold" stroke="none">.89</text>
      <path fill="none" d="M464.415 216.0977 L496.415 216.0977" clip-path="url(#clipPath2)"/>
      <path d="M504.415 216.0977 L492.415 211.0977 L495.415 216.0977 L492.415 221.0977 Z" clip-path="url(#clipPath2)" stroke="none"/>
      <text x="472.418" xml:space="preserve" y="243.4609" clip-path="url(#clipPath2)" font-weight="bold" stroke="none">now</text>
      <text x="476.0742" xml:space="preserve" y="258.1621" clip-path="url(#clipPath2)" font-weight="bold" stroke="none">.95</text>
      <path fill="none" d="M543.4541 216.0977 L575.415 216.0977" clip-path="url(#clipPath2)"/>
      <path d="M583.415 216.0977 L571.415 211.0977 L574.415 216.0977 L571.415 221.0977 Z" clip-path="url(#clipPath2)" stroke="none"/>
      <text x="544.5762" xml:space="preserve" y="243.4609" clip-path="url(#clipPath2)" font-weight="bold" stroke="none">moved</text>
      <text x="555.5742" xml:space="preserve" y="258.1621" clip-path="url(#clipPath2)" font-weight="bold" stroke="none">.91</text>
      <path fill="none" d="M622.415 216.0977 L654.415 216.0977" clip-path="url(#clipPath2)"/>
      <path d="M662.415 216.0977 L650.415 211.0977 L653.415 216.0977 L650.415 221.0977 Z" clip-path="url(#clipPath2)" stroke="none"/>
      <text x="611.2422" xml:space="preserve" y="243.4609" clip-path="url(#clipPath2)" font-weight="bold" stroke="none">downstairs</text>
      <text x="637.9111" xml:space="preserve" y="258.1621" clip-path="url(#clipPath2)" font-weight="bold" stroke="none">.8</text>
      <path fill="none" d="M611 104.5378 L643 104.5378" clip-path="url(#clipPath2)"/>
      <path d="M651 104.5378 L639 99.5378 L642 104.5378 L639 109.5378 Z" clip-path="url(#clipPath2)" stroke="none"/>
      <text x="599.8271" xml:space="preserve" y="131.9011" clip-path="url(#clipPath2)" font-weight="bold" stroke="none">downstairs</text>
      <text x="626.4961" xml:space="preserve" y="146.6022" clip-path="url(#clipPath2)" font-weight="bold" stroke="none">.9</text>
      <path fill="none" d="M448 -7.0221 L480 -7.0221" clip-path="url(#clipPath2)"/>
      <path d="M488 -7.0221 L476 -12.0221 L479 -7.0221 L476 -2.0221 Z" clip-path="url(#clipPath2)" stroke="none"/>
      <text x="456.0029" xml:space="preserve" y="20.3412" clip-path="url(#clipPath2)" font-weight="bold" stroke="none">now</text>
      <text x="459.6592" xml:space="preserve" y="35.0424" clip-path="url(#clipPath2)" font-weight="bold" stroke="none">.95</text>
      <path fill="none" d="M527 -7.0221 L559 -7.0221" clip-path="url(#clipPath2)"/>
      <path d="M567 -7.0221 L555 -12.0221 L558 -7.0221 L555 -2.0221 Z" clip-path="url(#clipPath2)" stroke="none"/>
      <text x="528.1611" xml:space="preserve" y="20.3412" clip-path="url(#clipPath2)" font-weight="bold" stroke="none">moved</text>
      <text x="539.1592" xml:space="preserve" y="35.0424" clip-path="url(#clipPath2)" font-weight="bold" stroke="none">.91</text>
      <path fill="none" d="M606 -7.0221 L638 -7.0221" clip-path="url(#clipPath2)"/>
      <path d="M646 -7.0221 L634 -12.0221 L637 -7.0221 L634 -2.0221 Z" clip-path="url(#clipPath2)" stroke="none"/>
      <text x="620.9961" xml:space="preserve" y="20.3412" clip-path="url(#clipPath2)" stroke="none">to</text>
      <text x="620.9961" xml:space="preserve" y="35.0424" clip-path="url(#clipPath2)" stroke="none">.5</text>
      <path fill="none" d="M290 -109.5383 L322 -109.5383" clip-path="url(#clipPath2)"/>
      <path d="M330 -109.5383 L318 -114.5383 L321 -109.5383 L318 -104.5383 Z" clip-path="url(#clipPath2)" stroke="none"/>
      <text x="287.4961" xml:space="preserve" y="-82.175" clip-path="url(#clipPath2)" font-weight="bold" stroke="none">meeting</text>
      <text x="302.1592" xml:space="preserve" y="-67.4739" clip-path="url(#clipPath2)" font-weight="bold" stroke="none">.95</text>
      <path fill="none" d="M369 -109.5383 L401 -109.5383" clip-path="url(#clipPath2)"/>
      <path d="M409 -109.5383 L397 -114.5383 L400 -109.5383 L397 -104.5383 Z" clip-path="url(#clipPath2)" stroke="none"/>
      <text x="378.6611" xml:space="preserve" y="-82.175" clip-path="url(#clipPath2)" font-weight="bold" stroke="none">has</text>
      <text x="380.6592" xml:space="preserve" y="-67.4739" clip-path="url(#clipPath2)" font-weight="bold" stroke="none">.91</text>
      <path fill="none" d="M448 -109.5383 L480 -109.5383" clip-path="url(#clipPath2)"/>
      <path d="M488 -109.5383 L476 -114.5383 L479 -109.5383 L476 -104.5383 Z" clip-path="url(#clipPath2)" stroke="none"/>
      <text x="448.4932" xml:space="preserve" y="-82.175" clip-path="url(#clipPath2)" stroke="none">remove</text>
      <text x="460.1592" xml:space="preserve" y="-67.4739" clip-path="url(#clipPath2)" stroke="none">.60</text>
      <path fill="none" d="M527 -109.5383 L559 -109.5383" clip-path="url(#clipPath2)"/>
      <path d="M567 -109.5383 L555 -114.5383 L558 -109.5383 L555 -104.5383 Z" clip-path="url(#clipPath2)" stroke="none"/>
      <text x="537.6631" xml:space="preserve" y="-82.175" clip-path="url(#clipPath2)" stroke="none">two</text>
      <text x="538.6592" xml:space="preserve" y="-67.4739" clip-path="url(#clipPath2)" stroke="none">.78</text>
      <path fill="none" d="M132 -222.3638 L164 -222.3638" clip-path="url(#clipPath2)"/>
      <path d="M172 -222.3638 L160 -227.3638 L163 -222.3638 L160 -217.3638 Z" clip-path="url(#clipPath2)" stroke="none"/>
      <text x="141.6611" xml:space="preserve" y="-195.0005" clip-path="url(#clipPath2)" font-weight="bold" stroke="none">Joe</text>
      <text x="146.9961" xml:space="preserve" y="-180.2993" clip-path="url(#clipPath2)" font-weight="bold" stroke="none">.9</text>
      <path fill="none" d="M211 -222.3638 L243 -222.3638" clip-path="url(#clipPath2)"/>
      <path d="M251 -222.3638 L239 -227.3638 L242 -222.3638 L239 -217.3638 Z" clip-path="url(#clipPath2)" stroke="none"/>
      <text x="222" xml:space="preserve" y="-195.0005" clip-path="url(#clipPath2)" font-weight="bold" stroke="none">the</text>
      <text x="222.6592" xml:space="preserve" y="-180.2993" clip-path="url(#clipPath2)" font-weight="bold" stroke="none">.77</text>
      <path fill="none" d="M290 -222.3638 L322 -222.3638" clip-path="url(#clipPath2)"/>
      <path d="M330 -222.3638 L318 -227.3638 L321 -222.3638 L318 -217.3638 Z" clip-path="url(#clipPath2)" stroke="none"/>
      <text x="288.1523" xml:space="preserve" y="-195.0005" clip-path="url(#clipPath2)" stroke="none">tweeting</text>
      <text x="302.1592" xml:space="preserve" y="-180.2993" clip-path="url(#clipPath2)" stroke="none">.91</text>
      <path fill="none" d="M53 -361.2188 L85 -361.2188" clip-path="url(#clipPath2)"/>
      <path d="M93 -361.2188 L81 -366.2188 L84 -361.2188 L81 -356.2188 Z" clip-path="url(#clipPath2)" stroke="none"/>
      <text x="67" xml:space="preserve" y="-333.8555" clip-path="url(#clipPath2)" font-weight="bold" stroke="none">Hi</text>
      <text x="67.9961" xml:space="preserve" y="-319.1543" clip-path="url(#clipPath2)" font-weight="bold" stroke="none">.9</text>
      <path fill="none" d="M132 -361.2188 L164 -361.2188" clip-path="url(#clipPath2)"/>
      <path d="M172 -361.2188 L160 -366.2188 L163 -361.2188 L160 -356.2188 Z" clip-path="url(#clipPath2)" stroke="none"/>
      <text x="142.3262" xml:space="preserve" y="-333.8555" clip-path="url(#clipPath2)" stroke="none">Joe</text>
      <text x="146.9961" xml:space="preserve" y="-319.1543" clip-path="url(#clipPath2)" stroke="none">.7</text>
      <path fill="none" d="M-247.1667 -302 L-254.4483 -296.1354 L-259.6277 -290.2988 L-262.7046 -284.4901 L-263.6791 -278.7094 L-262.5513 -272.9565 L-259.3211 -267.2317 L-253.9885 -261.5347 L-252.9443 -260.7385" clip-path="url(#clipPath2)"/>
      <path d="M-246.5826 -255.8878 L-253.0935 -267.1399 L-253.7395 -261.3448 L-259.1568 -259.1878 Z" clip-path="url(#clipPath2)" stroke="none"/>
      <path fill="none" d="M-246.6016 -177.0439 L-253.5475 -171.7863 L-258.5282 -166.5083 L-261.5163 -161.2306 L-262.5118 -155.9531 L-261.5149 -150.6759 L-258.5253 -145.399 L-253.5433 -140.1224 L-252.9759 -139.6932" clip-path="url(#clipPath2)"/>
      <path d="M-246.5959 -134.8666 L-253.1493 -146.0939 L-253.7734 -140.2965 L-259.1825 -138.1189 Z" clip-path="url(#clipPath2)" stroke="none"/>
      <path fill="none" d="M-246.6151 -68.629 L-252.766 -63.5957 L-257.1595 -58.5624 L-259.7955 -53.5292 L-260.674 -48.496 L-259.7951 -43.463 L-257.1588 -38.4299 L-252.7997 -33.4368 L-252.7223 -33.3735" clip-path="url(#clipPath2)"/>
      <path d="M-246.5363 -28.3007 L-252.6448 -39.7761 L-253.4955 -34.0076 L-258.9858 -32.0437 Z" clip-path="url(#clipPath2)" stroke="none"/>
      <path fill="none" d="M-250.1667 42 L-255.423 48.8605 L-258.9633 55.5108 L-260.7875 61.951 L-260.8955 68.1811 L-259.2875 74.201 L-255.9633 80.0108 L-252.5638 83.7876 L-252.4857 83.8499" clip-path="url(#clipPath2)"/>
      <path d="M-246.4935 89.1504 L-252.169 77.4547 L-253.2347 83.1874 L-258.7945 84.9448 Z" clip-path="url(#clipPath2)" stroke="none"/>
      <path fill="none" d="M-249.1667 164 L-254.3065 170.125 L-257.9779 176.25 L-260.1807 182.375 L-260.915 188.5 L-260.1807 194.625 L-257.9779 200.75 L-254.3087 206.8714 L-254.2444 206.948" clip-path="url(#clipPath2)"/>
      <path d="M-249.1024 213.0766 L-252.9851 200.67 L-254.8872 206.1819 L-260.6458 207.0975 Z" clip-path="url(#clipPath2)" stroke="none"/>
    </g>
  </g>
</svg>
